M48
;FILE_FORMAT=2:4
INCH
;TYPE=PLATED
T01C0.013
T02C0.018
T03C0.030
T04C0.035
T05C0.038
T06C0.039
T07C0.043
T08C0.047
T09C0.051
;TYPE=NON_PLATED
T10C0.134
%
T01
X+058268Y+084528
X+062362
X+061339Y+087598
X+065512Y+073622
X+064921Y+077165
X+063583Y+077126
X+064213Y+097087
X+067756Y+073976
X+066378Y+076132
X+067047Y+077244
X+068189Y+075472
X+068465Y+092559
X+067795Y+090827
X+066929Y+095354
X+067520Y+098150
X+070748Y+076811
Y+090945
X+070945Y+092756
X+070433Y+095433
X+069528Y+097087
X+071063Y+098150
X+074006Y+072382
X+074449Y+074488
X+072638Y+073583
X+073661Y+080433
X+074134Y+078386
X+073612Y+078907
X+073150Y+091142
X+073543Y+091102
X+073937Y+090315
X+074094Y+097165
X+074606
X+076457Y+068189
X+075472Y+073583
X+075512Y+073071
X+076978Y+072323
X+076929Y+074409
X+075512Y+072480
X+075984Y+072402
X+076417Y+075630
X+077559Y+080315
Y+078346
X+076378Y+080472
X+076890Y+083386
X+076535Y+090315
X+077756Y+098189
X+078740Y+075630
X+079173Y+083386
X+078701Y+090551
X+079173Y+098189
X+078740Y+097165
Y+098248
X+083425Y+073071
X+081939Y+072264
X+082441Y+074567
X+083425Y+074557
X+083504Y+080394
X+082520Y+080433
X+081457Y+078228
X+083543Y+098110
X+083307Y+097126
X+084449Y+074606
X+084911Y+072333
X+085827Y+078228
X+084921Y+084724
X+085846Y+090531
X+086339Y+097677
X+084803Y+097047
X+085315Y+097165
X+084291Y+099390
X+087795Y+073976
X+087244Y+073701
X+088150Y+073268
X+087441Y+074488
X+088346Y+077559
X+087362Y+078730
X+089291Y+079252
X+088465Y+084724
X+088524Y+090699
X+092559Y+079793
X+090778Y+079272
X+091201Y+079537
X+091319Y+078406
X+090906Y+090561
X+091732Y+090984
X+094528Y+065039
X+093278Y+076565
X+095512Y+086102
X+095709Y+093898
X+095335Y+097096
X+095719Y+096929
X+093701Y+101181
X+093504Y+100827
X+097480Y+076220
X+098543Y+075315
X+098465Y+079606
X+097480Y+087520
X+097520Y+090551
X+096821Y+097175
X+099331Y+086102
X+100827Y+088701
X+100433Y+087559
X+100236Y+098110
X+099961Y+099685
X+100709Y+099252
X+104055Y+065039
X+103248Y+072392
X+103533Y+074744
X+104616Y+074272
X+102362Y+073248
X+103533Y+073750
X+102756Y+072756
X+103248Y+075246
X+104606Y+075433
X+102362Y+075748
X+102598Y+085984
X+103583Y+086417
X+103031Y+092244
X+103465Y+092510
X+103543Y+093622
X+103268Y+096890
X+105512Y+072795
X+107520Y+073701
X+106024Y+073504
X+107441Y+072795
X+106535Y+073504
X+107008Y+073110
X+106496Y+075669
X+107677Y+085276
X+106575Y+085591
X+105984Y+086417
X+107087Y+086693
X+105994Y+090886
X+107559Y+096299
X+106063Y+100335
X+109469Y+070728
X+108543Y+071378
X+108504Y+070000
X+110000Y+069409
X+109016Y+071299
X+110433Y+075315
X+108937Y+081850
X+108543Y+084803
X+110197Y+086693
X+110039Y+085039
X+108307Y+092677
X+110266Y+092254
X+109222Y+092589
X+109016Y+095512
X+110394
X+110116Y+098150
X+110551Y+097087
X+110116Y+099409
X+112559Y+071535
X+113465Y+071260
X+113504Y+073504
X+112244Y+078465
X+112362Y+081850
X+111614Y+086260
X+113583Y+085039
X+112126Y+097126
X+111614
X+115512Y+071299
X+115945Y+073819
X+115472Y+073583
X+114528Y+074331
X+115512Y+075512
X+114331Y+078819
X+116142Y+084793
Y+092717
X+115748Y+093307
X+114331Y+097096
X+114390Y+098661
X+118110Y+092293
X+120866Y+078701
X+121457Y+092520
X+120472Y+093701
X+121457Y+095276
X+059291Y+086850
X+063376Y+086860
X+066575Y+095787
X+068346Y+095866
X+072835Y+096181
X+074567
X+076102Y+083780
X+075591Y+074803
X+076890Y+075039
X+075748Y+080787
X+078425Y+083780
X+079961Y+074961
X+083425Y+072165
X+081890Y+077953
X+082874Y+084173
X+083543Y+095787
X+084951Y+084173
X+087244Y+078189
X+088189Y+075197
X+087402Y+096024
X+089567Y+096063
X+090787Y+078071
X+093297Y+072126
X+093465Y+095827
X+093740Y+096181
X+098110Y+077992
X+096496Y+087008
X+101614Y+089803
X+102480
X+102244Y+090197
X+103268Y+090118
X+104134Y+087008
X+105945Y+077953
X+106850Y+074921
X+108317Y+093199
X+109921Y+096024
X+111890Y+072047
X+112795Y+095827
X+114961Y+074843
X+114252Y+077913
X+115433Y+078071
X+063031Y+089370
X+071850Y+090551
X+071890Y+095315
X+069055Y+097126
X+083858Y+072283
Y+073386
X+081102Y+073425
X+083907Y+074616
X+090010Y+093642
X+093150Y+100394
X+099213Y+075984
X+104961Y+085984
X+108071Y+086260
X+105000Y+092008
X+102087Y+093976
X+105079Y+098150
X+117008Y+071260
X+114016Y+070315
Y+071535
X+117008Y+072520
X+113976Y+073543
X+114016Y+076220
X+119882Y+082126
X+120079Y+085246
X+114016Y+085866
X+110817Y+092451
X+113780Y+093268
Y+095512
X+116929Y+093307
X+072087Y+075118
X+083789Y+099183
X+093150Y+096102
X+087008Y+099016
X+104961Y+090118
X+099134Y+090157
X+114173Y+089882
T02
X+058465Y+070079
Y+073031
Y+075984
Y+078543
X+059449Y+085630
X+058661Y+087402
Y+089567
X+059213Y+093504
X+058268Y+095669
X+059449
X+062008Y+078543
X+062598Y+086220
Y+085039
X+060630Y+095669
X+065157Y+063583
X+063583Y+065354
Y+067520
X+065197Y+071378
X+064370Y+086024
Y+085236
X+064094Y+087795
X+065354Y+094488
Y+096457
X+063386
Y+098031
Y+099606
Y+100984
X+067126Y+063583
X+066929Y+085630
X+067913Y+085276
X+066535Y+098031
X+067283Y+098661
X+068465Y+100394
X+071063Y+064764
Y+067717
X+070866Y+085827
Y+084843
X+071614Y+097953
X+070039Y+096929
X+070551Y+097638
X+071614Y+099449
X+070039Y+100433
X+069528
X+070591Y+099843
X+070787Y+100709
X+074409Y+063583
X+074016Y+067480
X+073976Y+071142
X+074488Y+072441
X+074213Y+085827
X+073031
Y+084843
X+072717Y+087756
X+073425Y+100472
X+076378Y+063583
X+077559Y+070669
X+077165Y+084449
Y+085827
X+075787Y+085630
X+076378Y+092520
X+076772Y+098071
X+075827Y+097638
X+076772Y+099370
X+077244Y+100394
X+075709Y+100039
X+076299Y+100512
X+079331Y+063583
X+078976Y+067992
X+079961Y+068307
X+080512Y+071654
X+079724Y+069882
X+080512
X+080315Y+074213
X+079921Y+082283
X+080512Y+083268
X+080315Y+085630
X+079921Y+087795
X+080276Y+098228
X+078583Y+100512
X+082480Y+063583
X+082874Y+068189
X+082402Y+067008
X+081339Y+068189
X+083622Y+068110
X+081929Y+071260
X+081890Y+085630
X+081496Y+097441
Y+098622
X+082283Y+099390
Y+101142
X+081496Y+100197
X+082953Y+100827
X+084843Y+064173
X+086417Y+063583
X+085787Y+067441
X+084646Y+068543
X+084331Y+068110
X+084882Y+066890
X+085423Y+073524
X+086417Y+073622
X+086378Y+086260
X+085433
X+084449Y+085630
X+085433Y+085236
X+086614Y+098307
X+086181Y+099843
X+085787Y+100512
X+089173Y+069685
X+087805Y+076152
X+089291Y+075945
X+088780Y+077165
X+087815Y+080453
X+088189Y+085827
X+089370
X+088189Y+087795
X+091732Y+069882
X+092126Y+073819
X+090787Y+077244
X+091929Y+077362
Y+075591
X+091024Y+082047
X+091929Y+085827
X+090945
X+091929Y+084843
X+090945
X+094094Y+063583
X+095669Y+068504
X+093583Y+069961
X+094094Y+074409
X+094882Y+073228
X+094094Y+073622
Y+075591
Y+076772
Y+079528
Y+081890
X+095276
X+095433Y+086535
X+094449Y+086496
X+094882Y+084843
Y+085630
X+094331Y+098110
Y+099370
X+098622Y+063583
X+096457
X+098622Y+067323
X+096850Y+069685
Y+071654
X+098622Y+069685
X+097244Y+073228
X+098150
X+096457Y+081890
X+097047Y+085039
Y+086614
X+098425
Y+085236
X+096811Y+089370
X+098031Y+087992
X+096654Y+087795
X+098386Y+097638
X+097835Y+098268
X+097874Y+097008
X+097835Y+100433
X+097323Y+100827
X+098622Y+099843
X+100787Y+063583
X+101575Y+068504
X+100197
X+100000Y+071654
X+100197Y+069685
X+100689Y+074242
X+099606Y+073031
X+100394Y+077559
X+100787Y+084646
X+101181Y+085827
X+099646Y+089370
X+101181Y+087795
X+100748Y+100472
X+103543Y+063583
X+103602Y+075748
X+104331Y+080315
X+103150Y+078346
X+104331Y+083661
X+102362Y+081890
X+103150Y+081496
X+102362Y+086614
X+103150Y+085039
X+104331
X+104213Y+097638
X+103740Y+097047
X+104528Y+099843
X+103740Y+100394
X+106693Y+065354
X+106299Y+063583
X+105984Y+071181
X+106890Y+069488
X+105984Y+072323
X+105551Y+073937
X+106496Y+078425
X+105512Y+081890
X+106575Y+086457
X+105433Y+085787
X+109685Y+065157
X+108661Y+063583
X+109488Y+071358
X+110394Y+071496
X+109488Y+073307
X+109449Y+087795
X+108976Y+097638
X+109370Y+100157
X+113455Y+068543
X+112785Y+067372
X+111634Y+067825
X+112953Y+070787
X+113543Y+070157
X+111654Y+070709
X+111604Y+069665
X+112992Y+073307
X+113031Y+074291
X+111811Y+074252
Y+073307
X+113622Y+099331
X+113110Y+100315
X+111654Y+100394
X+116339Y+063583
X+115709Y+078465
X+115630Y+086299
X+114646Y+086339
X+114961Y+094488
X+115748Y+100984
X+115551Y+099606
X+119291Y+085827
X+118504
X+119291Y+087795
X+118504
X+117323Y+090551
X+118504
X+122047Y+071654
Y+074016
Y+076772
Y+079921
Y+082283
Y+086614
Y+084646
Y+088583
X+120866Y+088189
Y+090551
X+058268Y+083858
X+058465Y+081102
X+058071Y+092913
X+062008Y+068898
X+064370Y+084252
X+065551Y+090157
X+064173Y+093189
X+068543Y+074843
X+067913Y+087008
X+066535Y+092913
Y+099291
X+071063Y+069094
X+071654Y+078081
X+070866Y+087008
X+072441Y+093228
X+074606Y+099016
X+077470Y+072224
X+075984Y+069134
X+075591Y+096063
X+076378Y+093307
X+079921Y+078061
X+080315Y+096063
X+079764Y+098780
X+082441Y+072283
X+081890Y+069173
X+082756Y+099094
X+085453Y+072254
X+086024Y+081299
X+086260Y+075197
X+087598Y+069213
X+089370Y+072244
X+089173Y+075197
X+089370Y+084252
X+088976Y+093307
X+088189Y+092913
X+091732Y+071850
X+091969Y+068780
X+092470Y+078169
X+091299Y+075118
X+090945Y+087008
X+091929
X+092126Y+092913
X+094488Y+068898
X+094094Y+080709
Y+078071
X+094882Y+098858
X+098622Y+065748
X+098425Y+084252
X+097244Y+093228
X+096457Y+092913
X+100394Y+080709
X+100000Y+092913
X+104331Y+081102
X+103150Y+080709
X+104331Y+092913
X+103228Y+099016
X+105512Y+080709
X+106024Y+074921
X+107402Y+087165
X+105512Y+093268
X+107461Y+092982
X+105591Y+099252
X+109685Y+065748
X+109449Y+083858
X+110630Y+090157
X+108583Y+099252
X+110630Y+099213
X+113622Y+081299
X+113425Y+078228
X+111811Y+090157
X+116339Y+066142
X+114567Y+090157
X+117717Y+069094
X+117638Y+084252
X+118110Y+096063
X+122047Y+069094
Y+093297
X+121260Y+093307
X+121772Y+096102
X+066063Y+086575
X+065945Y+085630
Y+084646
X+069291Y+086024
X+071850Y+085827
Y+084843
X+069291Y+085276
X+072126Y+100472
X+074764Y+069921
X+077776Y+073652
X+080709Y+089331
X+077953Y+092520
X+080748Y+097638
Y+099843
X+084055Y+100827
X+086929Y+067913
X+090276Y+073819
X+096063Y+073228
X+089803Y+077165
X+090315Y+075906
X+093307Y+085827
X+096063Y+085630
Y+084843
X+092913Y+087480
X+086890Y+100906
X+086850Y+099882
X+101969Y+078346
X+099213Y+081890
X+107874Y+087795
X+113780Y+063583
Y+065157
X+111024Y+063583
X+119685Y+071654
X+110787Y+074094
X+119685Y+073819
X+117126Y+085827
X+119685Y+092520
Y+090551
X+114055Y+097677
X+116929Y+098031
X+113701Y+097047
X+116929Y+100394
X+114173Y+100984
X+059843Y+068898
X+069291Y+083858
Y+087008
X+071850
X+081299Y+065748
X+080709Y+093189
X+077953Y+093307
X+074724Y+087087
X+077756Y+087008
X+084252Y+092913
X+093307Y+084252
X+108150Y+075276
X+108071Y+099213
X+098819Y+098819
X+120079Y+069094
X+110984Y+084016
X+114213Y+083819
X+110709Y+078150
T03
X+078417Y+082677
X+077417
X+076417
X+075417
X+074417
X+073417
X+072417
X+071417
X+070417
X+069417
X+068417
X+067417
X+066417
X+065417
X+064417
X+063417
X+062417
X+061417
X+078417Y+088677
X+077417
X+076417
X+075417
X+074417
X+073417
X+072417
X+071417
X+070417
X+069417
X+068417
X+067417
X+066417
X+065417
X+064417
X+063417
X+062417
X+061417
X+098496Y+082677
X+097496
X+096496
X+095496
X+094496
X+093496
X+092496
X+091496
X+090496
X+089496
X+088496
X+087496
X+086496
X+085496
X+084496
X+083496
X+082496
X+081496
X+098496Y+088677
X+097496
X+096496
X+095496
X+094496
X+093496
X+092496
X+091496
X+090496
X+089496
X+088496
X+087496
X+086496
X+085496
X+084496
X+083496
X+082496
X+081496
X+118575Y+082677
X+117575
X+116575
X+115575
X+114575
X+113575
X+112575
X+111575
X+110575
X+109575
X+108575
X+107575
X+106575
X+105575
X+104575
X+103575
X+102575
X+101575
X+118575Y+088677
X+117575
X+116575
X+115575
X+114575
X+113575
X+112575
X+111575
X+110575
X+109575
X+108575
X+107575
X+106575
X+105575
X+104575
X+103575
X+102575
X+101575
T04
X+072441Y+068780
Y+069780
Y+065780
Y+066780
Y+063780
X+069441Y+069780
Y+068780
Y+066780
Y+065780
Y+063780
X+072441Y+064780
Y+067780
X+069441
Y+064780
X+075787Y+094488
X+076772
X+078740
X+079724
X+075787Y+091496
X+076772
X+078740
X+079724
X+074803Y+094488
X+077756
X+080709
X+074803Y+091496
X+077756
X+080709
X+100591Y+094488
X+101575
X+103543
X+104528
X+100591Y+091496
X+101575
X+103543
X+104528
X+099606Y+094488
X+102559
X+105512
X+099606Y+091496
X+102559
X+105512
X+076575Y+076772
X+075591
X+073622
X+072638
X+076575Y+079764
X+075591
X+073622
X+072638
X+077559Y+076772
X+074606
X+071654
X+077559Y+079764
X+074606
X+071654
X+084843Y+076772
X+083858
X+081890
X+080906
X+084843Y+079764
X+083858
X+081890
X+080906
X+085827Y+076772
X+082874
X+079921
X+085827Y+079764
X+082874
X+079921
X+067520Y+094488
X+068504
X+070472
X+071457
X+067520Y+091496
X+068504
X+070472
X+071457
X+066535Y+094488
X+069488
X+072441
X+066535Y+091496
X+069488
X+072441
X+059252Y+094488
X+060236
X+062205
X+063189
X+059252Y+091496
X+060236
X+062205
X+063189
X+058268Y+094488
X+061220
X+064173
X+058268Y+091496
X+061220
X+064173
X+084055Y+094488
X+085039
X+087008
X+087992
X+084055Y+091496
X+085039
X+087008
X+087992
X+083071Y+094488
X+086024
X+088976
X+083071Y+091496
X+086024
X+088976
X+092323Y+094488
X+093307
X+095276
X+096260
X+092323Y+091496
X+093307
X+095276
X+096260
X+091339Y+094488
X+094291
X+097244
X+091339Y+091496
X+094291
X+097244
X+110827Y+076772
X+109843
X+107874
X+106890
X+110827Y+079764
X+109843
X+107874
X+106890
X+111811Y+076772
X+108858
X+105906
X+111811Y+079764
X+108858
X+105906
X+119882Y+076772
X+118898
X+116929
X+115945
X+119882Y+079764
X+118898
X+116929
X+115945
X+120866Y+076772
X+117913
X+114961
X+120866Y+079764
X+117913
X+114961
X+108858Y+094488
X+109843
X+111811
X+112795
X+108858Y+091496
X+109843
X+111811
X+112795
X+107874Y+094488
X+110827
X+113780
X+107874Y+091496
X+110827
X+113780
X+117126Y+094488
X+118110
X+120079
X+121063
X+117126Y+091496
X+118110
X+120079
X+121063
X+116142Y+094488
X+119094
X+122047
X+116142Y+091496
X+119094
X+122047
T05
X+069307Y+078921
X+068307Y+077921
Y+079921
X+090315Y+069685
Y+071654
Y+070669
X+088189Y+069685
Y+071654
Y+070669
X+102126Y+065354
Y+067323
Y+066339
X+100000Y+065354
Y+067323
Y+066339
X+071079Y+074591
X+070079Y+073591
Y+075591
X+097402Y+065354
Y+067323
Y+066339
X+095276Y+065354
Y+067323
Y+066339
X+095748Y+074323
Y+077323
X+098748Y+074323
Y+077323
T06
X+108811Y+066535
X+107811
X+111811
X+110811
X+109811
X+106811
X+060236Y+078260
Y+075260
Y+076260
Y+072260
Y+073260
Y+074260
Y+077260
Y+071260
T07
X+103937Y+077165
X+085433Y+065748
X+092126Y+080315
X+094724Y+080394
X+104331Y+071260
X+083858Y+064173
X+086220
X+105512Y+067323
Y+070472
X+078740Y+065748
X+102362Y+071260
X+098819
T08
X+067323Y+069606
Y+065669
X+071575Y+071929
X+067638
X+079921Y+065748
X+083858
X+061811Y+080512
X+065748
T09
X+095394Y+071417
X+112992Y+090551
X+115354
X+067913Y+081496
X+079921Y+080906
X+098307Y+081181
X+068504Y+070866
X+102165Y+076929
X+108071Y+068701
T10
X+090157Y+065354
Y+099213
X+120079Y+065354
Y+099213
X+060236Y+065354
Y+099213
T00
M30
